<?xml version="1.0" standalone="no"?>
<!DOCTYPE svg PUBLIC "-//W3C//DTD SVG 20010904//EN"
 "http://www.w3.org/TR/2001/REC-SVG-20010904/DTD/svg10.dtd">
<svg version="1.0" xmlns="http://www.w3.org/2000/svg"
 width="360.000000pt" height="360.000000pt" viewBox="0 0 360.000000 360.000000"
 preserveAspectRatio="xMidYMid meet">

<g transform="translate(0.000000,360.000000) scale(0.100000,-0.100000)"
fill="#000000" stroke="none">
<path d="M1215 3060 c-121 -12 -211 -37 -305 -82 -121 -58 -230 -168 -289
-290 -80 -165 -83 -197 -86 -808 -2 -294 0 -557 3 -585 l7 -50 5 60 c3 33 2
70 -2 83 -6 16 -3 24 7 29 12 4 13 8 4 20 -10 11 -10 13 1 11 8 -2 14 2 15 9
0 6 4 15 9 20 5 4 6 3 3 -3 -4 -7 0 -17 9 -24 13 -12 14 -10 10 12 -4 22 -1
25 22 23 15 -1 36 5 46 14 16 13 18 13 11 1 -14 -23 -15 -42 -2 -37 7 3 11 9
10 15 -1 5 5 9 15 8 9 -2 17 -11 17 -22 -1 -10 4 -23 10 -27 6 -5 2 -6 -10 -2
-11 3 -16 3 -12 -1 4 -4 2 -13 -4 -20 -7 -8 -7 -14 1 -19 6 -4 9 -1 8 6 -2 6
3 14 11 17 8 3 11 0 7 -7 -4 -6 -2 -11 5 -11 8 0 7 -5 -2 -17 -12 -14 -12 -16
0 -8 11 6 13 4 8 -8 -3 -9 -3 -18 2 -21 4 -3 8 205 9 462 1 257 5 501 8 542
24 304 178 459 484 485 102 9 784 12 995 4 189 -7 266 -23 357 -71 106 -57
183 -164 219 -308 20 -79 20 -1226 1 -1315 -47 -210 -175 -329 -403 -375 -52
-10 -83 -19 -69 -19 15 -1 32 -7 39 -14 8 -6 11 -7 8 -1 -3 6 0 11 8 11 8 0
14 -3 13 -6 -2 -19 4 -24 12 -11 8 13 10 13 10 -1 0 -9 9 -24 20 -34 10 -9 18
-20 17 -24 -3 -10 36 -70 43 -66 4 2 7 -2 7 -10 0 -8 -4 -12 -8 -9 -4 2 -10 0
-14 -6 -11 -17 -23 -2 -21 25 2 13 -1 22 -5 19 -5 -3 -6 3 -3 13 5 14 4 15 -4
4 -6 -8 -6 -25 -1 -45 5 -17 9 -32 9 -33 0 -1 -8 -4 -17 -6 -10 -2 0 -2 22 1
68 7 187 50 254 89 83 50 187 160 233 248 42 81 73 186 87 295 12 101 14 1047
1 1182 -19 217 -76 355 -198 478 -84 84 -140 121 -241 158 -145 53 -165 54
-766 57 -308 2 -596 -1 -640 -5z m-535 -1534 c0 -2 -8 -10 -17 -17 -16 -13
-17 -12 -4 4 13 16 21 21 21 13z m1841 -893 c13 -16 12 -17 -3 -4 -17 13 -22
21 -14 21 2 0 10 -8 17 -17z"/>
<path d="M2410 2613 c-139 -72 -87 -283 70 -283 114 0 185 117 132 219 -9 19
-29 43 -44 54 -38 28 -114 33 -158 10z"/>
<path d="M1632 2430 c-233 -61 -415 -251 -467 -486 -24 -108 -17 -254 18 -352
32 -91 90 -182 159 -247 29 -27 37 -33 18 -12 -18 20 -30 37 -26 37 5 0 3 7
-4 15 -7 8 -17 12 -24 8 -6 -3 -8 -3 -4 2 4 4 3 14 -3 21 -7 9 -6 12 8 9 10
-1 17 -8 16 -14 -2 -6 7 -9 20 -7 12 2 21 10 19 17 -2 8 0 10 5 6 4 -5 9 -13
9 -18 3 -22 6 -23 14 -4 8 18 9 18 9 2 1 -10 6 -15 11 -12 6 4 8 10 6 14 -3 4
0 8 7 8 7 0 13 -14 14 -30 0 -22 -2 -26 -8 -15 -5 10 -20 15 -39 13 -16 -1
-28 1 -25 5 2 3 -2 7 -10 7 -10 0 -12 -4 -5 -12 5 -7 6 -15 2 -19 -4 -4 0 -6
8 -4 8 2 14 -3 12 -10 -1 -8 2 -11 8 -7 6 3 8 10 5 15 -3 5 -1 11 5 15 5 3 10
0 10 -7 0 -9 3 -9 10 2 9 13 10 13 11 0 1 -8 1 -18 1 -21 -1 -3 5 -6 13 -6 8
0 13 3 11 6 -2 3 0 15 5 26 6 17 8 16 9 -10 1 -26 3 -27 9 -10 5 11 7 28 5 39
-2 10 0 15 4 12 4 -4 7 -12 7 -17 0 -5 5 -9 10 -8 6 1 9 5 7 11 -1 5 2 7 7 4
5 -4 4 -16 -2 -31 -10 -21 -13 -22 -19 -7 -6 16 -7 16 -7 0 -1 -25 17 -31 28
-9 11 19 34 22 48 6 4 -4 2 -5 -4 -1 -7 4 -13 3 -13 -3 0 -5 5 -11 12 -13 9
-3 9 -6 0 -12 -8 -4 -16 1 -21 16 -6 14 -10 17 -10 7 -1 -9 9 -24 21 -35 12
-10 18 -14 15 -8 -4 7 0 18 9 25 14 11 15 10 12 -7 -2 -14 2 -18 16 -16 13 2
17 -1 13 -10 -4 -11 4 -14 31 -13 35 1 58 26 44 49 -3 5 0 6 6 2 7 -4 8 -17 2
-36 -6 -22 -4 -32 8 -42 9 -7 13 -8 9 -2 -19 32 48 38 71 7 7 -10 16 -17 20
-15 3 2 8 -2 10 -10 2 -9 0 -8 -7 2 -10 13 -11 13 -11 0 0 -13 -1 -13 -10 0
-6 9 -10 10 -10 3 0 -6 5 -15 10 -18 6 -4 8 -10 5 -15 -3 -4 6 -3 19 3 14 7
22 17 19 27 -4 12 -3 13 5 1 6 -8 9 -22 7 -31 -2 -9 2 -17 9 -17 7 0 13 6 13
13 0 7 -3 11 -7 9 -3 -2 -6 4 -6 14 0 10 5 18 12 18 6 0 11 -5 11 -11 0 -30 4
-49 10 -43 3 4 13 1 21 -6 11 -8 14 -8 9 0 -4 6 -2 15 4 19 8 5 9 3 4 -6 -6
-10 -4 -12 8 -7 9 3 19 3 21 -2 5 -8 -8 -11 -61 -14 -41 -2 -34 -12 10 -15 58
-4 190 44 271 99 183 122 286 317 286 543 0 293 -194 546 -480 625 -97 27
-236 27 -338 1z m349 -248 c263 -129 323 -473 119 -680 -226 -230 -608 -133
-710 181 -17 54 -16 172 3 237 38 130 149 244 280 286 27 9 78 13 143 11 90
-2 107 -6 165 -35z m-389 -864 c-8 -8 -9 -4 -5 13 4 13 8 18 11 10 2 -7 -1
-18 -6 -23z m36 4 c-9 -11 -9 -13 3 -12 23 4 39 0 39 -8 0 -9 -50 -11 -51 -2
0 3 -2 12 -4 21 -1 9 3 16 11 16 11 0 11 -3 2 -15z m74 -44 c-8 -8 -9 -4 -5
13 4 13 8 18 11 10 2 -7 -1 -18 -6 -23z"/>
<path d="M620 1475 c-1 -5 -3 -14 -5 -20 -1 -5 -3 -14 -3 -19 -1 -5 -9 -3 -17
4 -8 7 -16 10 -16 6 -1 -3 -3 -10 -4 -16 -1 -5 -3 -15 -4 -21 0 -5 -5 -7 -11
-4 -6 4 -7 -2 -1 -17 5 -13 14 -22 21 -20 7 2 9 -6 6 -20 -3 -13 -3 -17 0 -10
3 6 10 10 15 7 5 -4 6 2 2 12 -6 16 -5 16 10 4 9 -7 14 -18 10 -24 -4 -6 -1
-7 6 -3 9 6 8 13 -5 27 -9 10 -21 16 -25 13 -5 -3 -9 2 -9 11 0 9 4 14 9 10 6
-3 15 3 21 12 10 16 11 16 7 -4 -6 -25 17 -51 28 -33 4 6 4 14 1 17 -3 4 -6 1
-6 -6 0 -7 -4 -10 -9 -7 -11 7 -3 44 12 53 6 4 8 0 4 -10 -4 -10 -2 -16 6 -14
7 1 11 -7 10 -18 -1 -11 0 -14 3 -7 3 6 11 9 17 6 9 -5 9 -3 0 6 -9 10 -8 18
5 38 24 37 25 58 2 37 -11 -10 -24 -14 -31 -9 -9 5 -10 2 -5 -12 6 -15 5 -16
-5 -7 -9 9 -9 16 -1 26 9 11 8 14 -4 14 -11 0 -14 -7 -11 -24 5 -29 -9 -18
-16 12 -3 11 -6 16 -7 10z m74 -40 c-9 -14 -19 -23 -22 -20 -5 4 26 45 35 45
2 0 -4 -11 -13 -25z m-78 -4 c8 7 14 6 20 -2 4 -7 3 -9 -4 -5 -6 3 -15 -2 -21
-11 -8 -14 -11 -15 -12 -3 0 8 -7 2 -15 -15 -13 -25 -14 -26 -9 -5 4 14 7 31
7 38 1 8 5 9 11 3 7 -7 15 -7 23 0z"/>
<path d="M594 1318 c-4 -7 -4 -10 1 -6 4 4 15 2 24 -5 14 -11 14 -10 2 6 -16
20 -18 21 -27 5z"/>
<path d="M1723 1265 c0 -8 4 -12 9 -9 5 4 12 -4 15 -17 l6 -23 9 24 c10 26 8
29 -19 34 -12 3 -20 -1 -20 -9z"/>
<path d="M1798 1153 c12 -2 30 -2 40 0 9 3 -1 5 -23 4 -22 0 -30 -2 -17 -4z"/>
<path d="M2389 719 c-10 -6 -11 -9 -1 -9 8 0 10 -5 6 -12 -5 -8 0 -7 11 2 17
14 18 13 13 -7 -6 -23 13 -48 27 -35 4 4 5 0 3 -8 -3 -8 -10 -14 -15 -13 -5 1
-10 -4 -10 -11 0 -7 6 -13 14 -13 7 0 11 3 8 5 -3 3 2 14 12 24 15 17 11 22
-17 20 -3 0 -7 9 -7 21 -2 20 -1 20 8 5 6 -10 15 -18 20 -18 15 0 2 16 -29 39
-19 13 -33 17 -43 10z"/>
<path d="M2371 623 c6 -7 8 -13 4 -13 -4 0 -2 -7 5 -15 14 -17 23 -13 26 10 1
8 -3 13 -9 12 -7 -1 -11 3 -10 9 1 6 -5 11 -12 11 -11 0 -12 -4 -4 -14z"/>
<path d="M2493 601 c0 -11 5 -18 9 -15 4 3 5 11 1 19 -7 21 -12 19 -10 -4z"/>
</g>
</svg>
